<svg xmlns="http://www.w3.org/2000/svg" width="1080" height="1920" viewBox="0 0 1080 1920">
  <defs>
    <linearGradient id="sky" x1="0" y1="0" x2="0" y2="1">
      <stop offset="0%" stop-color="#ff8a3d"/>
      <stop offset="55%" stop-color="#c0392b"/>
      <stop offset="100%" stop-color="#2a1b4a"/>
    </linearGradient>
  </defs>
  <rect width="1080" height="1920" fill="url(#sky)"/>
  <!-- Moon -->
  <circle cx="860" cy="180" r="72" fill="#fff8dc" opacity="0.95"/>
  <circle cx="895" cy="155" r="68" fill="#c0392b" opacity="0.85"/>
  <!-- Distant city skyline -->
  <rect x="0" y="1250" width="140" height="200" fill="#1a0a2e" opacity="0.6"/>
  <rect x="130" y="1200" width="80" height="250" fill="#1a0a2e" opacity="0.6"/>
  <rect x="200" y="1230" width="120" height="220" fill="#1a0a2e" opacity="0.6"/>
  <rect x="310" y="1190" width="90" height="260" fill="#1a0a2e" opacity="0.6"/>
  <rect x="390" y="1215" width="110" height="235" fill="#1a0a2e" opacity="0.6"/>
  <rect x="490" y="1200" width="70" height="250" fill="#1a0a2e" opacity="0.6"/>
  <rect x="550" y="1235" width="130" height="215" fill="#1a0a2e" opacity="0.6"/>
  <rect x="670" y="1210" width="95" height="240" fill="#1a0a2e" opacity="0.6"/>
  <rect x="755" y="1190" width="80" height="260" fill="#1a0a2e" opacity="0.6"/>
  <rect x="825" y="1225" width="115" height="225" fill="#1a0a2e" opacity="0.6"/>
  <rect x="930" y="1205" width="75" height="245" fill="#1a0a2e" opacity="0.6"/>
  <rect x="995" y="1240" width="85" height="210" fill="#1a0a2e" opacity="0.6"/>
  <!-- Stall awnings -->
  <rect x="20" y="1380" width="300" height="420" rx="4" fill="#1a0a2e" opacity="0.82"/>
  <polygon points="20,1380 170,1330 320,1380" fill="#d63031" opacity="0.9"/>
  <rect x="360" y="1340" width="340" height="460" rx="4" fill="#1a0a2e" opacity="0.82"/>
  <polygon points="360,1340 530,1280 700,1340" fill="#e17055" opacity="0.9"/>
  <rect x="730" y="1370" width="330" height="430" rx="4" fill="#1a0a2e" opacity="0.82"/>
  <polygon points="730,1370 895,1315 1060,1370" fill="#d63031" opacity="0.9"/>
  <!-- Fairy-light string -->
  <path d="M0 1350 Q270 1305 540 1330 Q810 1355 1080 1325" stroke="#1a0a2e" stroke-width="3" fill="none" opacity="0.7"/>
  <circle cx="70"  cy="1345" r="9" fill="#fffde7" opacity="0.95"/>
  <circle cx="160" cy="1328" r="9" fill="#ffcc00" opacity="0.95"/>
  <circle cx="260" cy="1318" r="9" fill="#ff8080" opacity="0.95"/>
  <circle cx="355" cy="1320" r="9" fill="#80ff80" opacity="0.95"/>
  <circle cx="450" cy="1328" r="9" fill="#fffde7" opacity="0.95"/>
  <circle cx="540" cy="1329" r="9" fill="#ffcc00" opacity="0.95"/>
  <circle cx="630" cy="1334" r="9" fill="#ff8080" opacity="0.95"/>
  <circle cx="720" cy="1340" r="9" fill="#80ff80" opacity="0.95"/>
  <circle cx="810" cy="1330" r="9" fill="#fffde7" opacity="0.95"/>
  <circle cx="900" cy="1327" r="9" fill="#ffcc00" opacity="0.95"/>
  <circle cx="995" cy="1328" r="9" fill="#ff8080" opacity="0.95"/>
  <circle cx="1065" cy="1327" r="9" fill="#80ff80" opacity="0.95"/>
</svg>
